<svg width="1000" height="364" viewBox="0 0 1000 364" fill="none" xmlns="http://www.w3.org/2000/svg">
<path d="M12.8701 5.57776H121.572C139.689 5.57776 152.852 9.68307 161.041 17.8714C169.228 26.0597 173.334 39.2235 173.334 57.3404V83.2217C173.334 101.339 169.228 114.502 161.041 122.691C152.852 130.879 139.689 134.984 121.572 134.984H59.4565V186.747H12.8701V5.57776ZM126.748 57.3404C126.748 46.9878 121.572 41.8116 111.219 41.8116H59.4565V98.7504H111.219C121.572 98.7504 126.748 93.5742 126.748 83.2217V57.3404Z" fill="white"/>
<path d="M186.273 149.219C228.375 151.807 256.845 153.101 271.682 153.101C275.653 153.101 278.799 151.941 281.12 149.598C283.44 147.256 284.622 144.132 284.622 140.161V115.573H215.769V79.3395H284.622V57.3404C284.622 46.9878 279.446 41.8116 269.094 41.8116H188.862V5.57776H279.446C297.563 5.57776 310.727 9.68307 318.915 17.8714C327.103 26.0597 331.209 39.2235 331.209 57.3404V140.161C331.209 157.073 327.237 169.5 319.294 177.421C311.352 185.364 298.924 189.335 282.034 189.335C256.153 189.335 224.225 187.617 186.273 184.159V149.219Z" fill="white"/>
<path d="M400.576 189.335C391.941 189.335 383.061 188.465 373.914 186.747V151.807H397.207C402.205 151.807 405.663 149.821 407.559 145.85C408.429 144.132 408.853 142.28 408.853 140.294C408.853 138.309 408.429 136.546 407.559 134.984L336.386 5.57776H388.148L434.735 97.4564L473.557 5.57776H525.319L459.322 147.925C453.276 161.557 446.024 171.731 437.591 178.469C428.264 185.721 415.926 189.335 400.576 189.335Z" fill="white"/>
<path d="M527.907 147.925H574.493V186.747H527.907V147.925Z" fill="white"/>
<path d="M597.787 5.57776H706.488C724.605 5.57776 737.769 9.68307 745.957 17.8714C754.145 26.0597 758.251 39.2235 758.251 57.3404V83.2217C758.251 101.339 754.145 114.502 745.957 122.691C737.769 130.879 724.605 134.984 706.488 134.984H644.373V186.747H597.787V5.57776ZM711.664 57.3404C711.664 46.9878 706.488 41.8116 696.136 41.8116H644.373V98.7504H696.136C706.488 98.7504 711.664 93.5742 711.664 83.2217V57.3404Z" fill="white"/>
<path d="M986.006 122.043C986.006 140.16 981.901 153.324 973.712 161.512C965.524 169.7 952.36 173.806 934.243 173.806H903.186V191.923H856.599V173.806H825.542C807.425 173.806 794.261 169.7 786.073 161.512C777.885 153.324 773.779 140.16 773.779 122.043V70.2804C773.779 52.1635 777.885 38.9997 786.073 30.8114C794.261 22.6231 807.425 18.5178 825.542 18.5178H856.599V0.400879H903.186V18.5178H934.243C952.36 18.5178 965.524 22.6231 973.712 30.8114C981.901 38.9997 986.006 52.1635 986.006 70.2804V122.043ZM820.366 122.043C820.366 132.396 825.542 137.572 835.894 137.572H859.188V54.7516H835.894C825.542 54.7516 820.366 59.9279 820.366 70.2804V122.043ZM939.42 70.2804C939.42 59.9279 934.243 54.7516 923.891 54.7516H900.598V137.572H923.891C934.243 137.572 939.42 132.396 939.42 122.043V70.2804Z" fill="white"/>
<path d="M0.241211 224.23H999.795" stroke="white" stroke-width="15" stroke-miterlimit="10"/>
<path d="M13.3379 262.16H30.2054C33.0166 262.16 35.047 262.807 36.3187 264.056C37.5905 265.328 38.2375 267.381 38.2375 270.192V274.208C38.2375 277.019 37.5905 279.072 36.3187 280.344C35.047 281.615 33.0166 282.262 30.2054 282.262H20.5668V290.295H13.3379V262.16ZM31.0086 270.192C31.0086 268.585 30.2054 267.782 28.5989 267.782H20.5668V276.618H28.5989C30.2054 276.618 31.0086 275.814 31.0086 274.208V270.192Z" fill="white"/>
<path d="M67.1534 282.639C67.1534 285.451 66.5064 287.503 65.2569 288.775C63.9852 290.047 61.9548 290.694 59.1213 290.694H49.0811C46.2699 290.694 44.2395 290.047 42.9678 288.775C41.696 287.503 41.0713 285.451 41.0713 282.639V269.788C41.0713 266.977 41.696 264.946 42.9678 263.652C44.2395 262.381 46.2699 261.756 49.0811 261.756H59.1213C61.9325 261.756 63.9852 262.403 65.2569 263.652C66.5287 264.924 67.1534 266.977 67.1534 269.788V282.639ZM59.9245 269.788C59.9245 268.182 59.1213 267.378 57.5148 267.378H50.6875C49.0811 267.378 48.2779 268.182 48.2779 269.788V282.639C48.2779 284.246 49.0811 285.049 50.6875 285.049H57.5148C59.1213 285.049 59.9245 284.246 59.9245 282.639V269.788Z" fill="white"/>
<path d="M92.8552 289.871C86.8757 290.406 81.9226 290.674 77.9958 290.674C75.363 290.674 73.4442 290.049 72.2171 288.822C70.99 287.595 70.3652 285.654 70.3652 283.043V270.192C70.3652 267.381 70.99 265.35 72.2617 264.056C73.5335 262.785 75.5638 262.16 78.3751 262.16H92.8329V267.782H79.9815C78.3751 267.782 77.5718 268.585 77.5718 270.192V283.043C77.5718 283.668 77.7503 284.159 78.1073 284.516C78.4643 284.873 78.9328 285.051 79.4906 285.051C80.0484 285.051 80.6731 285.051 81.3425 285.029C82.0118 285.007 82.7035 285.007 83.4398 284.962C84.1537 284.94 84.89 284.917 85.6263 284.873C86.3626 284.851 87.3219 284.784 88.4821 284.717C89.6423 284.627 91.0926 284.538 92.8329 284.427V289.871H92.8552Z" fill="white"/>
<path d="M117.755 289.871C111.775 290.406 106.822 290.674 102.895 290.674C100.262 290.674 98.3436 290.049 97.1165 288.822C95.8894 287.595 95.2646 285.654 95.2646 283.043V270.192C95.2646 267.381 95.8894 265.35 97.1611 264.056C98.4329 262.785 100.463 262.16 103.274 262.16H117.733V267.782H104.881C103.274 267.782 102.471 268.585 102.471 270.192V283.043C102.471 283.668 102.65 284.159 103.007 284.516C103.364 284.873 103.832 285.051 104.39 285.051C104.948 285.051 105.573 285.051 106.242 285.029C106.911 285.007 107.603 285.007 108.339 284.962C109.053 284.94 109.789 284.917 110.526 284.873C111.262 284.851 112.221 284.784 113.382 284.717C114.542 284.627 115.992 284.538 117.733 284.427V289.871H117.755Z" fill="white"/>
<path d="M145.465 290.272H138.236V273.003L128.597 290.272H120.967V262.16H128.196V279.429L137.834 262.16H145.465V290.272Z" fill="white"/>
<path d="M167.554 290.272V273.003L157.916 290.272H150.285V262.16H157.514V279.429L167.153 262.16H174.783V290.272H167.554ZM160.325 260.152C156.845 260.152 155.104 258.411 155.104 254.931V253.726H160.325V254.73C160.325 255.132 160.459 255.466 160.727 255.734C160.995 256.002 161.329 256.136 161.731 256.136H162.936C163.337 256.136 163.672 256.002 163.94 255.734C164.208 255.466 164.341 255.132 164.341 254.73V253.726H169.562V254.931C169.562 258.411 167.822 260.152 164.341 260.152H160.325Z" fill="white"/>
<path d="M201.29 289.871C195.31 290.406 190.357 290.674 186.43 290.674C183.798 290.674 181.879 290.049 180.652 288.822C179.425 287.595 178.8 285.654 178.8 283.043V270.192C178.8 267.381 179.425 265.35 180.696 264.056C181.968 262.785 183.998 262.16 186.81 262.16H201.267V267.782H188.416C186.81 267.782 186.006 268.585 186.006 270.192V283.043C186.006 283.668 186.185 284.159 186.542 284.516C186.899 284.873 187.367 285.051 187.925 285.051C188.483 285.051 189.108 285.051 189.777 285.029C190.446 285.007 191.138 285.007 191.874 284.962C192.588 284.94 193.325 284.917 194.061 284.873C194.797 284.851 195.757 284.784 196.917 284.717C198.077 284.627 199.527 284.538 201.267 284.427V289.871H201.29Z" fill="white"/>
<path d="M224.984 261.756C225.653 261.756 226.858 261.89 228.598 262.157V267.579H226.992C226.59 267.579 226.233 267.713 225.899 267.958C225.586 268.204 225.341 268.494 225.185 268.784L221.369 276.013L229.201 290.27H221.57L215.345 278.824H211.731V290.27H204.502V262.157H211.731V273.202H215.345L219.361 265.571C219.941 264.456 220.678 263.518 221.548 262.827C222.418 262.113 223.556 261.756 224.984 261.756Z" fill="white"/>
<path d="M256.109 290.272H248.88V273.003L239.242 290.272H231.611V262.16H238.84V279.429L248.479 262.16H256.109V290.272Z" fill="white"/>
<path d="M278.197 290.272V273.003L268.558 290.272H260.928V262.16H268.157V279.429L277.795 262.16H285.426V290.272H278.197ZM270.968 260.152C267.487 260.152 265.747 258.411 265.747 254.931V253.726H270.968V254.73C270.968 255.132 271.102 255.466 271.37 255.734C271.637 256.002 271.972 256.136 272.374 256.136H273.578C273.98 256.136 274.315 256.002 274.582 255.734C274.85 255.466 274.984 255.132 274.984 254.73V253.726H280.205V254.931C280.205 258.411 278.465 260.152 274.984 260.152H270.968Z" fill="white"/>
<path d="M300.687 284.449C307.224 284.851 311.641 285.051 313.94 285.051C314.564 285.051 315.055 284.873 315.412 284.516C315.769 284.159 315.948 283.668 315.948 283.043V279.228H305.26V273.606H315.948V270.192C315.948 268.585 315.144 267.782 313.538 267.782H301.088V262.16H315.144C317.956 262.16 319.986 262.807 321.28 264.056C322.552 265.328 323.199 267.381 323.199 270.192V283.043C323.199 285.676 322.574 287.595 321.347 288.822C320.12 290.049 318.179 290.674 315.568 290.674C311.552 290.674 306.599 290.406 300.709 289.871V284.449H300.687Z" fill="white"/>
<path d="M347.675 261.756C348.345 261.756 349.549 261.89 351.29 262.157V267.579H349.683C349.282 267.579 348.925 267.713 348.59 267.958C348.278 268.204 348.032 268.494 347.876 268.784L344.061 276.013L351.892 290.27H344.262L338.037 278.824H334.422V290.27H327.193V262.157H334.422V273.202H338.037L342.053 265.571C342.633 264.456 343.369 263.518 344.239 262.827C345.109 262.113 346.247 261.756 347.675 261.756Z" fill="white"/>
<path d="M379.581 282.639C379.581 285.451 378.934 287.503 377.684 288.775C376.413 290.047 374.36 290.694 371.549 290.694H361.509C358.697 290.694 356.645 290.047 355.373 288.775C354.101 287.503 353.454 285.451 353.454 282.639V269.788C353.454 266.977 354.101 264.946 355.373 263.652C356.645 262.381 358.675 261.756 361.509 261.756H371.549C374.36 261.756 376.39 262.403 377.684 263.652C378.956 264.924 379.581 266.977 379.581 269.788V282.639ZM372.352 269.788C372.352 268.182 371.549 267.378 369.942 267.378H363.115C361.509 267.378 360.705 268.182 360.705 269.788V282.639C360.705 284.246 361.509 285.049 363.115 285.049H369.942C371.549 285.049 372.352 284.246 372.352 282.639V269.788Z" fill="white"/>
<path d="M408.093 290.272H400.864V278.826H390.824V290.272H383.595V262.16H390.824V273.204H400.864V262.16H408.093V290.272Z" fill="white"/>
<path d="M438.216 282.639C438.216 285.451 437.569 287.503 436.319 288.775C435.047 290.047 432.995 290.694 430.183 290.694H420.143C417.332 290.694 415.279 290.047 414.008 288.775C412.736 287.503 412.089 285.451 412.089 282.639V269.788C412.089 266.977 412.736 264.946 414.008 263.652C415.279 262.381 417.31 261.756 420.143 261.756H430.183C432.995 261.756 435.025 262.403 436.319 263.652C437.591 264.924 438.216 266.977 438.216 269.788V282.639ZM430.987 269.788C430.987 268.182 430.183 267.378 428.577 267.378H421.75C420.143 267.378 419.34 268.182 419.34 269.788V282.639C419.34 284.246 420.143 285.049 421.75 285.049H428.577C430.183 285.049 430.987 284.246 430.987 282.639V269.788Z" fill="white"/>
<path d="M466.327 274.61L460.704 284.65H455.082L449.459 274.61V290.272H442.23V262.16H449.861L457.893 277.019L465.925 262.16H473.556V290.272H466.327V274.61Z" fill="white"/>
<path d="M502.873 290.272H495.645V273.003L486.006 290.272H478.375V262.16H485.604V279.429L495.243 262.16H502.873V290.272Z" fill="white"/>
<path d="M523.956 281.035C520.743 281.303 517.709 281.437 514.853 281.437C511.997 281.437 509.967 280.812 508.717 279.585C507.49 278.358 506.865 276.417 506.865 273.806V262.16H514.094V273.806C514.094 274.431 514.273 274.922 514.63 275.279C514.987 275.636 515.477 275.814 516.102 275.814C518.289 275.814 520.899 275.681 523.933 275.413V262.16H531.162V290.272H523.933V281.035H523.956Z" fill="white"/>
<path d="M558.295 290.272H536.006V262.16H558.295V267.782H543.235V273.204H555.083V278.826H543.235V284.65H558.295V290.272Z" fill="white"/>
<path d="M583.195 289.871C577.216 290.406 572.262 290.674 568.336 290.674C565.703 290.674 563.784 290.049 562.557 288.822C561.33 287.595 560.705 285.654 560.705 283.043V270.192C560.705 267.381 561.352 265.35 562.624 264.056C563.896 262.785 565.926 262.16 568.759 262.16H583.217V267.782H570.366C568.759 267.782 567.956 268.585 567.956 270.192V283.043C567.956 283.668 568.135 284.159 568.492 284.516C568.849 284.873 569.317 285.051 569.875 285.051C570.433 285.051 571.058 285.051 571.727 285.029C572.396 285.007 573.088 285.007 573.824 284.962C574.538 284.94 575.274 284.917 576.011 284.873C576.747 284.851 577.706 284.784 578.867 284.717C580.027 284.627 581.477 284.538 583.217 284.427V289.871H583.195Z" fill="white"/>
<path d="M606.89 261.756C607.559 261.756 608.764 261.89 610.504 262.157V267.579H608.898C608.496 267.579 608.139 267.713 607.804 267.958C607.492 268.204 607.247 268.494 607.09 268.784L603.275 276.013L611.107 290.27H603.476L597.251 278.824H593.637V290.27H586.408V262.157H593.637V273.202H597.251L601.267 265.571C601.847 264.456 602.583 263.518 603.454 262.827C604.324 262.113 605.484 261.756 606.89 261.756Z" fill="white"/>
<path d="M638.014 290.272H630.785V273.003L621.147 290.272H613.516V262.16H620.745V279.429L630.384 262.16H638.014V290.272Z" fill="white"/>
<path d="M660.103 290.272V273.003L650.464 290.272H642.833V262.16H650.062V279.429L659.701 262.16H667.331V290.272H660.103ZM652.874 260.152C649.393 260.152 647.653 258.411 647.653 254.931V253.726H652.874V254.73C652.874 255.132 653.008 255.466 653.275 255.734C653.543 256.002 653.878 256.136 654.279 256.136H655.484C655.886 256.136 656.22 256.002 656.488 255.734C656.756 255.466 656.89 255.132 656.89 254.73V253.726H662.111V254.931C662.111 258.411 660.37 260.152 656.89 260.152H652.874Z" fill="white"/>
<path d="M690.96 290.674C689.621 290.674 688.238 290.54 686.832 290.272V284.851H690.447C691.227 284.851 691.763 284.538 692.053 283.936C692.187 283.668 692.254 283.378 692.254 283.066C692.254 282.753 692.187 282.486 692.053 282.24L681.009 262.16H689.041L696.27 276.417L702.294 262.16H710.326L700.085 284.248C699.148 286.368 698.032 287.952 696.716 288.978C695.244 290.116 693.325 290.674 690.96 290.674Z" fill="white"/>
<path d="M736.408 290.272H729.179V278.826H719.139V290.272H711.91V262.16H719.139V273.204H729.179V262.16H736.408V290.272Z" fill="white"/>
<path d="M765.723 290.272H758.494V273.003L748.856 290.272H741.225V262.16H748.454V279.429L758.093 262.16H765.723V290.272Z" fill="white"/>
<path d="M770.545 262.16H786.609C789.242 262.16 791.161 262.762 792.388 263.945C793.615 265.127 794.24 266.957 794.24 269.389C794.24 270.995 793.883 272.289 793.191 273.293C792.499 274.297 791.629 274.989 790.625 275.39C792.789 275.971 794.262 277.421 795.043 279.719C795.311 280.544 795.445 281.504 795.445 282.619C795.445 285.252 794.82 287.171 793.593 288.398C792.366 289.625 790.424 290.25 787.814 290.25H770.545V262.16ZM787.011 270.192C787.011 268.585 786.208 267.782 784.601 267.782H777.774V273.405H784.601C786.208 273.405 787.011 272.602 787.011 270.995V270.192ZM788.216 281.437C788.216 279.83 787.412 279.027 785.806 279.027H777.774V284.65H785.806C787.412 284.65 788.216 283.847 788.216 282.24V281.437Z" fill="white"/>
<path d="M821.347 290.272H799.058V262.16H821.347V267.782H806.287V273.204H818.134V278.826H806.287V284.65H821.347V290.272Z" fill="white"/>
<path d="M824.561 262.16H841.428C844.239 262.16 846.27 262.807 847.564 264.056C848.835 265.328 849.482 267.381 849.482 270.192V274.208C849.482 277.019 848.835 279.072 847.564 280.344C846.292 281.615 844.262 282.262 841.428 282.262H831.79V290.295H824.561V262.16ZM842.231 270.192C842.231 268.585 841.428 267.782 839.822 267.782H831.79V276.618H839.822C841.428 276.618 842.231 275.814 842.231 274.208V270.192Z" fill="white"/>
<path d="M874.761 289.871C868.781 290.406 863.828 290.674 859.901 290.674C857.269 290.674 855.35 290.049 854.123 288.822C852.896 287.595 852.271 285.654 852.271 283.043V270.192C852.271 267.381 852.918 265.35 854.19 264.056C855.462 262.785 857.492 262.16 860.325 262.16H874.783V267.782H861.932C860.325 267.782 859.522 268.585 859.522 270.192V283.043C859.522 283.668 859.701 284.159 860.058 284.516C860.415 284.873 860.883 285.051 861.441 285.051C861.999 285.051 862.624 285.051 863.293 285.029C863.962 285.007 864.654 285.007 865.39 284.962C866.104 284.94 866.84 284.917 867.577 284.873C868.313 284.851 869.272 284.784 870.432 284.717C871.593 284.627 873.043 284.538 874.783 284.427V289.871H874.761Z" fill="white"/>
<path d="M902.47 290.272H895.241V273.003L885.603 290.272H877.972V262.16H885.201V279.429L894.84 262.16H902.47V290.272Z" fill="white"/>
<path d="M920.946 290.272H913.717V267.782H905.283V262.16H929.38V267.782H920.946V290.272Z" fill="white"/>
<path d="M954.48 290.272H932.191V262.16H954.48V267.782H939.42V273.204H951.267V278.826H939.42V284.65H954.48V290.272Z" fill="white"/>
<path d="M971.345 290.272H964.116V267.782H955.683V262.16H979.779V267.782H971.345V290.272Z" fill="white"/>
<path d="M60.2151 361.444H46.1588V327.865L27.4172 361.444H12.5801V306.78H26.6363V340.359L45.3779 306.78H60.2151V361.444Z" fill="white"/>
<path d="M116.44 330.988L105.507 350.511H94.5748L83.6422 330.988V361.444H69.5859V306.78H84.4231L100.041 335.674L115.659 306.78H130.496V361.444H116.44V330.988Z" fill="white"/>
<path d="M183.195 361.444H139.866V306.78H183.195V317.713H153.922V328.266H176.97V339.199H153.922V350.533H183.195V361.444Z" fill="white"/>
<path d="M237.077 361.444H223.021V339.177H203.499V361.444H189.442V306.78H203.499V328.244H223.021V306.78H237.077V361.444Z" fill="white"/>
<path d="M294.082 361.444H280.026V327.865L261.284 361.444H246.447V306.78H260.503V340.359L279.245 306.78H294.082V361.444Z" fill="white"/>
<path d="M340.934 361.444H326.878V306.78H369.448V317.713H340.934V361.444Z" fill="white"/>
<path d="M372.575 349.73H386.631V361.443H372.575V349.73Z" fill="white"/>
<path d="M393.635 306.78H424.871C429.98 306.78 433.728 307.941 436.116 310.261C438.503 312.581 439.708 316.107 439.708 320.837C439.708 323.96 439.039 326.504 437.678 328.445C436.317 330.386 434.666 331.769 432.68 332.55C436.897 333.688 439.753 336.499 441.27 340.984C441.783 342.59 442.051 344.465 442.051 346.606C442.051 351.716 440.846 355.464 438.458 357.851C436.071 360.239 432.323 361.444 427.214 361.444H393.635V306.78ZM425.674 322.398C425.674 319.275 424.112 317.713 420.989 317.713H407.713V328.646H420.989C424.112 328.646 425.674 327.084 425.674 323.96V322.398ZM428.017 344.264C428.017 341.14 426.455 339.578 423.331 339.578H407.713V350.511H423.331C426.455 350.511 428.017 348.949 428.017 345.826V344.264Z" fill="white"/>
<path d="M446.738 349.73H460.795V361.443H446.738V349.73Z" fill="white"/>
<path d="M538.882 361.444H524.826V317.713H505.303V361.444H491.247V306.78H538.882V361.444Z" fill="white"/>
<path d="M561.06 358.989C558.918 361.153 556.307 362.224 553.161 362.224C550.038 362.224 547.093 361.957 544.326 361.444V350.89H547.851C548.833 350.89 549.659 350.556 550.306 349.864C550.953 349.195 551.31 348.347 551.354 347.365L553.697 306.758H597.026V361.444H582.97V317.713H566.571L564.607 350.132C564.406 353.858 563.202 356.825 561.06 358.989Z" fill="white"/>
<path d="M649.773 361.444H606.444V306.78H649.795V317.713H620.5V328.266H643.525V339.199H620.5V350.533H649.773V361.444Z" fill="white"/>
<path d="M687.657 306.78H703.275L685.694 334.112L703.654 361.444H688.036L677.104 344.264L666.171 361.444H650.553L668.514 334.112L650.933 306.78H666.461L677.082 323.96L687.657 306.78Z" fill="white"/>
<path d="M717.331 361.444H702.115L722.798 306.78H738.416L759.121 361.444H743.882L740.357 351.671H720.834L717.331 361.444ZM724.359 341.542H736.854L730.607 323.179L724.359 341.542Z" fill="white"/>
<path d="M810.638 361.444H796.582V339.177H777.059V361.444H763.003V306.78H777.059V328.244H796.582V306.78H810.638V361.444Z" fill="white"/>
<path d="M869.206 346.606C869.206 352.073 867.979 356.044 865.502 358.521C863.026 360.997 859.054 362.224 853.588 362.224H834.065C828.599 362.224 824.628 360.997 822.151 358.521C819.674 356.044 818.447 352.073 818.447 346.606V321.618C818.447 316.151 819.674 312.18 822.151 309.703C824.628 307.227 828.599 306 834.065 306H853.588C859.054 306 863.026 307.227 865.502 309.703C867.979 312.18 869.206 316.151 869.206 321.618V346.606ZM855.15 321.618C855.15 318.494 853.588 316.932 850.464 316.932H837.189C834.065 316.932 832.503 318.494 832.503 321.618V346.606C832.503 349.73 834.065 351.292 837.189 351.292H850.464C853.588 351.292 855.15 349.73 855.15 346.606V321.618Z" fill="white"/>
<path d="M877.015 306.78H908.251C913.361 306.78 917.109 307.941 919.496 310.261C921.884 312.581 923.088 316.107 923.088 320.837C923.088 323.96 922.419 326.504 921.058 328.445C919.697 330.386 918.046 331.769 916.06 332.55C920.277 333.688 923.133 336.499 924.65 340.984C925.163 342.59 925.431 344.465 925.431 346.606C925.431 351.716 924.226 355.464 921.839 357.851C919.452 360.239 915.703 361.444 910.594 361.444H877.015V306.78ZM909.032 322.398C909.032 319.275 907.47 317.713 904.347 317.713H891.071V328.646H904.347C907.47 328.646 909.032 327.084 909.032 323.96V322.398ZM911.375 344.264C911.375 341.14 909.813 339.578 906.689 339.578H891.071V350.511H906.689C909.813 350.511 911.375 348.949 911.375 345.826V344.264Z" fill="white"/>
<path d="M942.232 361.444H927.015L947.698 306.78H963.316L984.021 361.444H968.782L965.257 351.671H945.734L942.232 361.444ZM949.26 341.542H961.754L955.507 323.179L949.26 341.542Z" fill="white"/>
</svg>
